<svg xmlns="http://www.w3.org/2000/svg" width="656" height="508" viewBox="0 0 656 508" shape-rendering="crispEdges" role="img" aria-label="logo">
<rect x="0" y="0" width="64" height="64" rx="9" fill="rgb(59,130,246)"/>
<rect x="370" y="0" width="64" height="64" rx="9" fill="rgb(102,101,241)"/>
<rect x="0" y="74" width="64" height="64" rx="9" fill="rgb(68,124,245)"/>
<rect x="74" y="74" width="64" height="64" rx="9" fill="rgb(76,118,244)"/>
<rect x="370" y="74" width="64" height="64" rx="9" fill="rgb(110,99,242)"/>
<rect x="444" y="74" width="64" height="64" rx="9" fill="rgb(119,97,244)"/>
<rect x="0" y="148" width="64" height="64" rx="9" fill="rgb(76,118,244)"/>
<rect x="74" y="148" width="64" height="64" rx="9" fill="rgb(85,112,243)"/>
<rect x="148" y="148" width="64" height="64" rx="9" fill="rgb(93,106,242)"/>
<rect x="370" y="148" width="64" height="64" rx="9" fill="rgb(119,97,244)"/>
<rect x="444" y="148" width="64" height="64" rx="9" fill="rgb(128,95,245)"/>
<rect x="518" y="148" width="64" height="64" rx="9" fill="rgb(136,93,246)"/>
<rect x="0" y="222" width="64" height="64" rx="9" fill="rgb(85,112,243)"/>
<rect x="74" y="222" width="64" height="64" rx="9" fill="rgb(93,106,242)"/>
<rect x="148" y="222" width="64" height="64" rx="9" fill="rgb(102,101,241)"/>
<rect x="222" y="222" width="64" height="64" rx="9" fill="rgb(110,99,242)"/>
<rect x="370" y="222" width="64" height="64" rx="9" fill="rgb(128,95,245)"/>
<rect x="444" y="222" width="64" height="64" rx="9" fill="rgb(136,93,246)"/>
<rect x="518" y="222" width="64" height="64" rx="9" fill="rgb(143,91,246)"/>
<rect x="592" y="222" width="64" height="64" rx="9" fill="rgb(149,90,246)"/>
<rect x="0" y="296" width="64" height="64" rx="9" fill="rgb(93,106,242)"/>
<rect x="74" y="296" width="64" height="64" rx="9" fill="rgb(102,101,241)"/>
<rect x="148" y="296" width="64" height="64" rx="9" fill="rgb(110,99,242)"/>
<rect x="370" y="296" width="64" height="64" rx="9" fill="rgb(136,93,246)"/>
<rect x="444" y="296" width="64" height="64" rx="9" fill="rgb(143,91,246)"/>
<rect x="518" y="296" width="64" height="64" rx="9" fill="rgb(149,90,246)"/>
<rect x="0" y="370" width="64" height="64" rx="9" fill="rgb(102,101,241)"/>
<rect x="74" y="370" width="64" height="64" rx="9" fill="rgb(110,99,242)"/>
<rect x="370" y="370" width="64" height="64" rx="9" fill="rgb(143,91,246)"/>
<rect x="444" y="370" width="64" height="64" rx="9" fill="rgb(149,90,246)"/>
<rect x="0" y="444" width="64" height="64" rx="9" fill="rgb(110,99,242)"/>
<rect x="370" y="444" width="64" height="64" rx="9" fill="rgb(149,90,246)"/>
</svg>
